<?xml version="1.0" encoding="UTF-8" standalone="no"?>
<!DOCTYPE svg PUBLIC "-//W3C//DTD SVG 1.1//EN" "http://www.w3.org/Graphics/SVG/1.1/DTD/svg11.dtd">
<svg version="1.1" xmlns="http://www.w3.org/2000/svg" xmlns:xlink="http://www.w3.org/1999/xlink" preserveAspectRatio="xMidYMid meet" viewBox="81.10696912171319 42.410436242179856 467.6474943047541 582.2368772601526"><defs><path d="M100.93 349.73L329.93 162.73L532.93 383.73C531.94 386.22 531.32 387.78 531.07 388.41C517.94 421.4 502.18 453.27 483.93 483.73C483.93 483.73 483.93 483.73 483.93 483.73L159.93 487.73C155.47 481.55 152.68 477.69 151.56 476.15C131.24 448.03 112.98 418.48 96.93 387.73C96.93 387.73 96.93 387.73 96.93 387.73L100.93 349.73Z" id="aseTjAiVw"></path><path d="M316.11 42.57C309.94 42.52 306.09 42.48 304.55 42.47C230.36 41.8 156.23 46.81 82.8 57.47C82.71 57.49 82.48 57.52 82.11 57.57C80.77 192.24 80.77 277.57 82.11 313.57C83.44 349.57 88.44 373.57 97.11 385.57L319.41 208.57L316.11 42.57Z" id="cA6Hc3Lba"></path><path d="M247.16 141.19L266.22 141.12L274.13 121.23L240.34 121.16L247.16 141.19Z" id="ci81NDxdg"></path><path d="M266.18 140.76L266.25 159.82L286.15 167.73L286.21 133.93L266.18 140.76Z" id="a1xT8lsAnq"></path><path d="M266.44 159.61L247.38 159.67L239.47 179.57L273.27 179.64L266.44 159.61Z" id="b3V5xfMru"></path><path d="M247.34 160.12L247.27 141.07L227.37 133.16L227.3 166.95L247.34 160.12Z" id="a6M2UFS5R"></path><path d="M246.92 140.19L266.74 140.19L266.74 160.07L246.92 160.07L246.92 140.19Z" id="c1FGn3DRQ1"></path><path d="M138.16 141.19L157.22 141.12L165.13 121.23L131.34 121.16L138.16 141.19Z" id="erD2RavVM"></path><path d="M157.18 140.76L157.25 159.82L177.15 167.73L177.21 133.93L157.18 140.76Z" id="b8a1oqC75"></path><path d="M157.44 159.61L138.38 159.67L130.47 179.57L164.27 179.64L157.44 159.61Z" id="h1oP5VTpe"></path><path d="M138.34 160.12L138.27 141.07L118.37 133.16L118.3 166.95L138.34 160.12Z" id="a3LhVWkbWj"></path><path d="M137.92 140.19L157.74 140.19L157.74 160.07L137.92 160.07L137.92 140.19Z" id="bbmpZJvdY"></path><path d="M141.16 237.19L160.22 237.12L168.13 217.23L134.34 217.16L141.16 237.19Z" id="a36nsXzb"></path><path d="M160.18 236.76L160.25 255.82L180.15 263.73L180.21 229.93L160.18 236.76Z" id="j4esv5AQx5"></path><path d="M160.44 255.61L141.38 255.67L133.47 275.57L167.27 275.64L160.44 255.61Z" id="e2lQHrg4j1"></path><path d="M141.34 256.12L141.27 237.07L121.37 229.16L121.3 262.95L141.34 256.12Z" id="c14213TKt"></path><path d="M140.92 236.19L160.74 236.19L160.74 256.07L140.92 256.07L140.92 236.19Z" id="a6x9c8VoXA"></path><path d="M484.55 483.78C461.72 509.65 447.45 525.82 441.74 532.29C421.8 554.9 398.82 574.63 373.47 590.94C366.48 595.44 349.02 606.67 321.07 624.65L322.81 348.73L484.55 483.78Z" id="ebB7HOnSy"></path><path d="M157.6 483.3C180.43 509.17 194.7 525.34 200.41 531.81C220.35 554.42 243.33 574.15 268.68 590.46C275.67 594.96 293.13 606.19 321.07 624.17L327.64 493.81L322.5 348.73L157.6 483.3Z" id="e26ZfbkWiI"></path><path d="M331.77 431.25L312.71 431.18L304.81 411.28L338.6 411.21L331.77 431.25Z" id="bRfnnAz2p"></path><path d="M312.75 430.82L312.69 449.87L292.79 457.78L292.72 423.99L312.75 430.82Z" id="dT9vwpWar"></path><path d="M312.5 449.66L331.55 449.73L339.46 469.63L305.67 469.69L312.5 449.66Z" id="b1p78ExCPP"></path><path d="M331.6 450.18L331.67 431.12L351.56 423.21L351.63 457L331.6 450.18Z" id="k1OngmsJj"></path><path d="M332.02 430.25L312.19 430.25L312.19 450.13L332.02 450.13L332.02 430.25Z" id="ahHw4Hl73"></path><path d="M259.38 489.73L240.32 489.66L232.41 469.76L266.21 469.69L259.38 489.73Z" id="b66V5kXbNY"></path><path d="M240.36 489.3L240.29 508.36L220.4 516.26L220.33 482.47L240.36 489.3Z" id="d20AVgyyZo"></path><path d="M240.1 508.14L259.16 508.21L267.07 528.11L233.28 528.18L240.1 508.14Z" id="a4Q3pg6xJt"></path><path d="M259.21 508.66L259.28 489.6L279.17 481.69L279.24 515.49L259.21 508.66Z" id="b7yF6Yibd"></path><path d="M259.63 488.73L239.8 488.73L239.8 508.61L259.63 508.61L259.63 488.73Z" id="a3cRkQO3St"></path><path d="M408.73 489.73L389.67 489.66L381.76 469.76L415.56 469.69L408.73 489.73Z" id="bpQh79bCr"></path><path d="M389.71 489.3L389.64 508.36L369.75 516.26L369.68 482.47L389.71 489.3Z" id="a7yaElScQe"></path><path d="M389.45 508.14L408.51 508.21L416.42 528.11L382.62 528.18L389.45 508.14Z" id="a1T8U3p51I"></path><path d="M408.56 508.66L408.62 489.6L428.52 481.69L428.59 515.49L408.56 508.66Z" id="ae73G2Mwg"></path><path d="M408.97 488.73L389.15 488.73L389.15 508.61L408.97 508.61L408.97 488.73Z" id="aj4w89rzQ"></path><path d="M332.42 552.34L313.37 552.27L305.46 532.37L339.25 532.3L332.42 552.34Z" id="bhcuzm1X4"></path><path d="M313.41 551.91L313.34 570.96L293.44 578.87L293.37 545.08L313.41 551.91Z" id="a2OJCN9rHI"></path><path d="M313.15 570.75L332.21 570.82L340.11 590.72L306.32 590.79L313.15 570.75Z" id="c3ylNXrZd"></path><path d="M332.25 571.27L332.32 552.21L352.22 544.3L352.29 578.1L332.25 571.27Z" id="fLxcgceIj"></path><path d="M332.67 551.34L312.84 551.34L312.84 571.22L332.67 571.22L332.67 551.34Z" id="dKGhllnZ3"></path><path d="M313.75 42.57C319.92 42.52 323.77 42.48 325.31 42.47C399.5 41.8 473.64 46.81 547.06 57.47C547.15 57.49 547.38 57.52 547.75 57.57C549.09 192.24 549.09 277.57 547.75 313.57C546.42 349.57 541.42 373.57 532.75 385.57L310.45 208.57L313.75 42.57Z" id="a5RC2T4Rp"></path><path d="M364.12 142.21L345.06 142.14L337.15 122.24L370.94 122.17L364.12 142.21Z" id="a1epNJnRtb"></path><path d="M345.1 141.78L345.03 160.83L325.13 168.74L325.06 134.95L345.1 141.78Z" id="e3o7HTcjrJ"></path><path d="M344.84 160.62L363.9 160.69L371.81 180.59L338.01 180.66L344.84 160.62Z" id="f1axJMnZQ"></path><path d="M363.94 161.14L364.01 142.08L383.91 134.17L383.98 167.97L363.94 161.14Z" id="a1y0T9fSbS"></path><path d="M364.36 141.21L344.53 141.21L344.53 161.09L364.36 161.09L364.36 141.21Z" id="a6Khq84hCb"></path><path d="M473.12 142.21L454.06 142.14L446.15 122.24L479.94 122.17L473.12 142.21Z" id="bY2Wu5ba"></path><path d="M454.1 141.78L454.03 160.83L434.13 168.74L434.06 134.95L454.1 141.78Z" id="a1Ii7fYI6l"></path><path d="M453.84 160.62L472.9 160.69L480.81 180.59L447.01 180.66L453.84 160.62Z" id="adThL08Qe"></path><path d="M472.94 161.14L473.01 142.08L492.91 134.17L492.98 167.97L472.94 161.14Z" id="blwO18K59"></path><path d="M473.36 141.21L453.53 141.21L453.53 161.09L473.36 161.09L473.36 141.21Z" id="cv873UpEd"></path><path d="M470.12 238.21L451.06 238.14L443.15 218.24L476.94 218.17L470.12 238.21Z" id="a1iwv7VI4s"></path><path d="M451.1 237.78L451.03 256.83L431.13 264.74L431.06 230.95L451.1 237.78Z" id="c3v0iXLVuZ"></path><path d="M450.84 256.62L469.9 256.69L477.81 276.59L444.01 276.66L450.84 256.62Z" id="b1sP5DLn3x"></path><path d="M469.94 257.14L470.01 238.08L489.91 230.17L489.98 263.97L469.94 257.14Z" id="a1sZOzmVy"></path><path d="M470.36 237.21L450.53 237.21L450.53 257.09L470.36 257.09L470.36 237.21Z" id="a26GRUvRtB"></path></defs><g visibility="inherit"><g visibility="inherit"><use xlink:href="#aseTjAiVw" opacity="1" fill="#ffffff" fill-opacity="1"></use></g><g visibility="inherit"><use xlink:href="#cA6Hc3Lba" opacity="1" fill="#65152b" fill-opacity="1"></use></g><g visibility="inherit"><g visibility="inherit"><use xlink:href="#ci81NDxdg" opacity="1" fill="#ffffff" fill-opacity="1"></use></g><g visibility="inherit"><use xlink:href="#a1xT8lsAnq" opacity="1" fill="#ffffff" fill-opacity="1"></use></g><g visibility="inherit"><use xlink:href="#b3V5xfMru" opacity="1" fill="#ffffff" fill-opacity="1"></use></g><g visibility="inherit"><use xlink:href="#a6M2UFS5R" opacity="1" fill="#ffffff" fill-opacity="1"></use></g><g visibility="inherit"><use xlink:href="#c1FGn3DRQ1" opacity="1" fill="#ffffff" fill-opacity="1"></use></g></g><g visibility="inherit"><g visibility="inherit"><use xlink:href="#erD2RavVM" opacity="1" fill="#ffffff" fill-opacity="1"></use></g><g visibility="inherit"><use xlink:href="#b8a1oqC75" opacity="1" fill="#ffffff" fill-opacity="1"></use></g><g visibility="inherit"><use xlink:href="#h1oP5VTpe" opacity="1" fill="#ffffff" fill-opacity="1"></use></g><g visibility="inherit"><use xlink:href="#a3LhVWkbWj" opacity="1" fill="#ffffff" fill-opacity="1"></use></g><g visibility="inherit"><use xlink:href="#bbmpZJvdY" opacity="1" fill="#ffffff" fill-opacity="1"></use></g></g><g visibility="inherit"><g visibility="inherit"><use xlink:href="#a36nsXzb" opacity="1" fill="#ffffff" fill-opacity="1"></use></g><g visibility="inherit"><use xlink:href="#j4esv5AQx5" opacity="1" fill="#ffffff" fill-opacity="1"></use></g><g visibility="inherit"><use xlink:href="#e2lQHrg4j1" opacity="1" fill="#ffffff" fill-opacity="1"></use></g><g visibility="inherit"><use xlink:href="#c14213TKt" opacity="1" fill="#ffffff" fill-opacity="1"></use></g><g visibility="inherit"><use xlink:href="#a6x9c8VoXA" opacity="1" fill="#ffffff" fill-opacity="1"></use></g></g><g visibility="inherit"><use xlink:href="#ebB7HOnSy" opacity="1" fill="#65152b" fill-opacity="1"></use></g><g visibility="inherit"><use xlink:href="#e26ZfbkWiI" opacity="1" fill="#65152b" fill-opacity="1"></use></g><g visibility="inherit"><g visibility="inherit"><use xlink:href="#bRfnnAz2p" opacity="1" fill="#ffffff" fill-opacity="1"></use></g><g visibility="inherit"><use xlink:href="#dT9vwpWar" opacity="1" fill="#ffffff" fill-opacity="1"></use></g><g visibility="inherit"><use xlink:href="#b1p78ExCPP" opacity="1" fill="#ffffff" fill-opacity="1"></use></g><g visibility="inherit"><use xlink:href="#k1OngmsJj" opacity="1" fill="#ffffff" fill-opacity="1"></use></g><g visibility="inherit"><use xlink:href="#ahHw4Hl73" opacity="1" fill="#ffffff" fill-opacity="1"></use></g></g><g visibility="inherit"><g visibility="inherit"><use xlink:href="#b66V5kXbNY" opacity="1" fill="#ffffff" fill-opacity="1"></use></g><g visibility="inherit"><use xlink:href="#d20AVgyyZo" opacity="1" fill="#ffffff" fill-opacity="1"></use></g><g visibility="inherit"><use xlink:href="#a4Q3pg6xJt" opacity="1" fill="#ffffff" fill-opacity="1"></use></g><g visibility="inherit"><use xlink:href="#b7yF6Yibd" opacity="1" fill="#ffffff" fill-opacity="1"></use></g><g visibility="inherit"><use xlink:href="#a3cRkQO3St" opacity="1" fill="#ffffff" fill-opacity="1"></use></g></g><g visibility="inherit"><g visibility="inherit"><use xlink:href="#bpQh79bCr" opacity="1" fill="#ffffff" fill-opacity="1"></use></g><g visibility="inherit"><use xlink:href="#a7yaElScQe" opacity="1" fill="#ffffff" fill-opacity="1"></use></g><g visibility="inherit"><use xlink:href="#a1T8U3p51I" opacity="1" fill="#ffffff" fill-opacity="1"></use></g><g visibility="inherit"><use xlink:href="#ae73G2Mwg" opacity="1" fill="#ffffff" fill-opacity="1"></use></g><g visibility="inherit"><use xlink:href="#aj4w89rzQ" opacity="1" fill="#ffffff" fill-opacity="1"></use></g></g><g visibility="inherit"><g visibility="inherit"><use xlink:href="#bhcuzm1X4" opacity="1" fill="#ffffff" fill-opacity="1"></use></g><g visibility="inherit"><use xlink:href="#a2OJCN9rHI" opacity="1" fill="#ffffff" fill-opacity="1"></use></g><g visibility="inherit"><use xlink:href="#c3ylNXrZd" opacity="1" fill="#ffffff" fill-opacity="1"></use></g><g visibility="inherit"><use xlink:href="#fLxcgceIj" opacity="1" fill="#ffffff" fill-opacity="1"></use></g><g visibility="inherit"><use xlink:href="#dKGhllnZ3" opacity="1" fill="#ffffff" fill-opacity="1"></use></g></g><g visibility="inherit"><use xlink:href="#a5RC2T4Rp" opacity="1" fill="#65152b" fill-opacity="1"></use></g><g visibility="inherit"><g visibility="inherit"><use xlink:href="#a1epNJnRtb" opacity="1" fill="#ffffff" fill-opacity="1"></use></g><g visibility="inherit"><use xlink:href="#e3o7HTcjrJ" opacity="1" fill="#ffffff" fill-opacity="1"></use></g><g visibility="inherit"><use xlink:href="#f1axJMnZQ" opacity="1" fill="#ffffff" fill-opacity="1"></use></g><g visibility="inherit"><use xlink:href="#a1y0T9fSbS" opacity="1" fill="#ffffff" fill-opacity="1"></use></g><g visibility="inherit"><use xlink:href="#a6Khq84hCb" opacity="1" fill="#ffffff" fill-opacity="1"></use></g></g><g visibility="inherit"><g visibility="inherit"><use xlink:href="#bY2Wu5ba" opacity="1" fill="#ffffff" fill-opacity="1"></use></g><g visibility="inherit"><use xlink:href="#a1Ii7fYI6l" opacity="1" fill="#ffffff" fill-opacity="1"></use></g><g visibility="inherit"><use xlink:href="#adThL08Qe" opacity="1" fill="#ffffff" fill-opacity="1"></use></g><g visibility="inherit"><use xlink:href="#blwO18K59" opacity="1" fill="#ffffff" fill-opacity="1"></use></g><g visibility="inherit"><use xlink:href="#cv873UpEd" opacity="1" fill="#ffffff" fill-opacity="1"></use></g></g><g visibility="inherit"><g visibility="inherit"><use xlink:href="#a1iwv7VI4s" opacity="1" fill="#ffffff" fill-opacity="1"></use></g><g visibility="inherit"><use xlink:href="#c3v0iXLVuZ" opacity="1" fill="#ffffff" fill-opacity="1"></use></g><g visibility="inherit"><use xlink:href="#b1sP5DLn3x" opacity="1" fill="#ffffff" fill-opacity="1"></use></g><g visibility="inherit"><use xlink:href="#a1sZOzmVy" opacity="1" fill="#ffffff" fill-opacity="1"></use></g><g visibility="inherit"><use xlink:href="#a26GRUvRtB" opacity="1" fill="#ffffff" fill-opacity="1"></use></g></g></g></svg>